<svg width="400" height="400" viewBox="0 0 400 400" fill="none" xmlns="http://www.w3.org/2000/svg">
<path fill-rule="evenodd" clip-rule="evenodd" d="M200 400C310.457 400 400 310.457 400 200C400 89.5431 310.457 0 200 0C89.5431 0 0 89.5431 0 200C0 310.457 89.5431 400 200 400ZM170.664 252.797H229.38L239.756 286H285.776L220.103 108.266H179.819L114.634 286H160.41L170.664 252.797ZM219.126 219.716H180.918L199.961 158.07L219.126 219.716Z" fill="#D6032F"/>
<path fill-rule="evenodd" clip-rule="evenodd" d="M276.537 384.776C252.272 394.827 226.264 400 200 400L200 252.797H229.38L239.756 286H285.776L220.103 108.266H200L200 0C226.264 0 252.272 5.17315 276.537 15.2241C300.802 25.275 322.85 40.0069 341.421 58.5786C359.993 77.1504 374.725 99.1982 384.776 123.463C394.827 147.728 400 173.736 400 200C400 226.264 394.827 252.272 384.776 276.537C374.725 300.802 359.993 322.85 341.421 341.421C322.85 359.993 300.802 374.725 276.537 384.776ZM200 219.716L200 200L200 158.196L219.126 219.716H200Z" fill="#BD0E2D"/>
<circle cx="200" cy="200" r="192.5" stroke="#ADADAD" stroke-width="15"/>
</svg>
