<svg viewBox="0 0 400 400" fill="none" xmlns="http://www.w3.org/2000/svg">
<path fill-rule="evenodd" clip-rule="evenodd" d="M3.05176e-05 200C3.05176e-05 124.519 41.8141 58.804 103.542 24.7553L167.025 88.2385C165.714 91.9143 165 95.8738 165 100C165 113.962 173.175 126.015 185 131.632V268.368C173.175 273.985 165 286.038 165 300C165 319.33 180.67 335 200 335C219.33 335 235 319.33 235 300C235 286.038 226.825 273.985 215 268.368V136.213L267.025 188.238C265.714 191.914 265 195.874 265 200C265 219.33 280.67 235 300 235C319.33 235 335 219.33 335 200C335 180.67 319.33 165 300 165C295.874 165 291.914 165.714 288.238 167.025L232.975 111.762C234.286 108.086 235 104.126 235 100C235 80.67 219.33 65 200 65C195.874 65 191.914 65.714 188.238 67.0253L132.787 11.5742C153.793 4.08063 176.42 0 200 0C310.457 0 400 89.5431 400 200C400 310.457 310.457 400 200 400C89.5431 400 3.05176e-05 310.457 3.05176e-05 200Z" fill="#E94E31"/>
</svg>
