<svg width="48" height="48" viewBox="0 0 48 48" fill="none" xmlns="http://www.w3.org/2000/svg">
<circle cx="24" cy="24" r="24" fill="#EAEAEA"/>
<g clip-path="url(#clip0)">
<path d="M11.0455 35.5002H15.8182V23.9093L9 18.7957V33.4547C9 34.5866 9.91705 35.5002 11.0455 35.5002Z" fill="#4285F4"/>
<path d="M32.1818 35.5002H36.9545C38.0863 35.5002 39 34.5832 39 33.4547V18.7957L32.1818 23.9093" fill="#34A853"/>
<path d="M32.1818 15.0454V23.909L39 18.7954V16.0681C39 13.5386 36.1124 12.0965 34.0909 13.6136" fill="#FBBC04"/>
<path d="M15.8182 23.909V15.0454L24.0001 21.1818L32.1819 15.0454V23.909L24.0001 30.0454" fill="#EA4335"/>
<path d="M9 16.0664V18.7937L15.8182 23.9073V15.0437L13.9091 13.6119C11.8841 12.0948 9 13.5369 9 16.0664" fill="#C5221F"/>
</g>
<defs>
<clipPath id="clip0">
<rect width="30" height="22.5" fill="white" transform="translate(9 13)"/>
</clipPath>
</defs>
</svg>
