<svg viewBox="0 0 400 400" fill="none" xmlns="http://www.w3.org/2000/svg">
<path fill-rule="evenodd" clip-rule="evenodd" d="M200 400C310.457 400 400 310.457 400 200C400 89.5431 310.457 0 200 0C89.5431 0 0 89.5431 0 200C0 310.457 89.5431 400 200 400ZM191.953 108.266H149.229V230.214C149.229 238.189 147.601 244.415 144.346 248.891C141.172 253.285 136.615 255.482 130.674 255.482C124.082 255.482 119.362 253.651 116.514 249.989C113.747 246.327 112.363 240.427 112.363 232.289H69.3945C69.3945 250.193 74.7656 264.027 85.5078 273.793C96.25 283.559 111.305 288.441 130.674 288.441C142.23 288.441 152.687 286 162.046 281.117C171.486 276.234 178.81 269.358 184.019 260.487C189.308 251.617 191.953 241.526 191.953 230.214V108.266ZM304.014 224.11C308.49 227.61 310.728 232.493 310.728 238.759C310.728 244.293 308.652 248.606 304.502 251.698C300.433 254.709 294.858 256.215 287.778 256.215C276.711 256.215 268.695 253.977 263.73 249.501C258.848 244.944 256.406 237.904 256.406 228.383H213.438C213.438 240.102 216.367 250.478 222.227 259.511C228.167 268.463 236.956 275.543 248.594 280.751C260.312 285.878 273.374 288.441 287.778 288.441C308.205 288.441 324.277 284.006 335.996 275.136C347.715 266.265 353.574 254.058 353.574 238.515C353.574 219.065 343.971 203.806 324.766 192.738C316.872 188.181 306.781 183.949 294.492 180.043C282.204 176.055 273.618 172.23 268.735 168.568C263.853 164.825 261.411 160.674 261.411 156.117C261.411 150.909 263.608 146.636 268.003 143.3C272.479 139.882 278.542 138.173 286.191 138.173C293.76 138.173 299.741 140.167 304.136 144.154C308.612 148.142 310.85 153.757 310.85 161H353.574C353.574 150.176 350.767 140.574 345.151 132.191C339.536 123.728 331.642 117.217 321.47 112.66C311.379 108.103 299.945 105.824 287.168 105.824C274.066 105.824 262.266 107.94 251.768 112.172C241.27 116.322 233.132 122.182 227.354 129.75C221.657 137.237 218.809 145.904 218.809 155.751C218.809 175.526 230.324 191.07 253.354 202.382C260.435 205.881 269.549 209.503 280.698 213.246C291.847 216.99 299.619 220.611 304.014 224.11Z" fill="#F1E05A"/>
</svg>
