<svg viewBox="0 0 400 400" fill="none" xmlns="http://www.w3.org/2000/svg">
<path fill-rule="evenodd" clip-rule="evenodd" d="M400 200C400 310.457 310.457 400 200 400C89.543 400 0 310.457 0 200C0 89.5431 89.543 0 200 0C310.457 0 400 89.5431 400 200ZM251.178 199.994C247.603 192.489 243.608 184.878 239.201 177.244C234.449 169.014 229.481 161.214 224.383 153.901C216.502 153.311 208.353 153 200 153C191.495 153 183.202 153.322 175.187 153.934C170.097 161.237 165.137 169.026 160.392 177.244C155.985 184.878 151.99 192.489 148.415 199.994C151.99 207.498 155.985 215.109 160.392 222.744C164.459 229.787 168.684 236.515 173.013 242.893C181.699 243.617 190.724 244 200 244C209.123 244 218.002 243.629 226.556 242.928C230.893 236.54 235.127 229.8 239.201 222.744C243.608 215.109 247.603 207.498 251.178 199.994ZM249.593 171.244C246.455 165.809 243.219 160.543 239.906 155.462C249.343 156.661 258.288 158.269 266.617 160.224C264.195 168.413 261.159 176.974 257.517 185.763C255.033 180.935 252.39 176.089 249.593 171.244ZM230.938 142.409C244.741 143.688 257.772 145.804 269.697 148.621C270.971 143.18 271.944 137.953 272.613 132.989C274.317 120.335 273.961 110.007 272.043 102.404C270.138 94.8505 266.997 90.9899 263.796 89.1423C260.596 87.2947 255.682 86.5048 248.188 88.6313C240.645 90.772 231.522 95.6276 221.416 103.43C217.098 106.764 212.691 110.566 208.246 114.802C215.929 122.968 223.565 132.226 230.938 142.409ZM264.415 199.994C270.155 187.374 274.774 175.018 278.224 163.287C284.031 165.001 289.453 166.895 294.436 168.942C306.246 173.792 315.013 179.265 320.638 184.727C326.227 190.154 328 194.805 328 198.5C328 202.195 326.227 206.846 320.638 212.273C315.013 217.735 306.246 223.208 294.436 228.058C289.218 230.202 283.518 232.177 277.399 233.955C274.05 223.047 269.709 211.633 264.415 199.994ZM340 198.5C340 217.927 316.542 235.104 280.626 245.513C289.813 282.197 286.744 311.453 269.796 321.237C253.056 330.902 226.632 319.34 199.796 293.709C172.961 319.34 146.537 330.902 129.796 321.237C112.832 311.443 109.774 282.138 118.995 245.403C83.2924 234.983 60 217.859 60 198.5C60 179.265 82.9971 162.235 118.315 151.797C109.938 116.372 113.263 88.2954 129.796 78.75C146.537 69.0847 172.961 80.647 199.796 106.278C226.632 80.647 253.056 69.0847 269.796 78.75C286.312 88.2853 289.647 116.312 281.304 151.685C316.838 162.113 340 179.196 340 198.5ZM257.517 214.224C260.747 222.02 263.501 229.636 265.772 236.973C258.307 238.695 250.356 240.14 242.006 241.263C244.589 237.2 247.122 233.024 249.593 228.744C252.39 223.898 255.033 219.052 257.517 214.224ZM269.013 248.54C257.939 251.122 245.923 253.101 233.23 254.37C225.154 265.823 216.728 276.17 208.246 285.185C212.691 289.421 217.098 293.223 221.416 296.557C231.522 304.359 240.645 309.215 248.188 311.356C255.682 313.482 260.596 312.692 263.796 310.845C266.997 308.997 270.138 305.137 272.043 297.583C273.961 289.98 274.317 279.652 272.613 266.998C271.829 261.18 270.628 255.002 269.013 248.54ZM200 256C205.929 256 211.772 255.849 217.508 255.555C211.678 263.26 205.734 270.319 199.796 276.653C193.854 270.313 187.904 263.246 182.069 255.533C187.94 255.841 193.925 256 200 256ZM150 228.744C152.459 233.003 154.979 237.159 157.548 241.203C149.22 240.069 141.29 238.615 133.848 236.885C136.114 229.575 138.858 221.989 142.075 214.224C144.56 219.052 147.203 223.898 150 228.744ZM166.332 254.326C153.653 253.041 141.655 251.046 130.602 248.45C128.976 254.944 127.767 261.153 126.98 266.998C125.276 279.652 125.632 289.98 127.55 297.583C129.455 305.137 132.596 308.997 135.796 310.845C138.997 312.692 143.911 313.482 151.405 311.356C158.948 309.215 168.071 304.359 178.177 296.557C182.495 293.223 186.902 289.421 191.347 285.185C182.854 276.159 174.418 265.797 166.332 254.326ZM135.178 199.994C129.902 211.594 125.572 222.971 122.228 233.846C116.25 232.097 110.676 230.158 105.564 228.058C93.7535 223.208 84.9872 217.735 79.3616 212.273C73.7729 206.846 72 202.195 72 198.5C72 194.805 73.7729 190.154 79.3616 184.727C84.9872 179.265 93.7535 173.792 105.564 168.942C110.44 166.939 115.736 165.083 121.401 163.398C124.848 175.096 129.456 187.414 135.178 199.994ZM142.075 185.763C138.447 177.006 135.42 168.475 133.003 160.313C141.309 158.349 150.233 156.73 159.65 155.519C156.35 160.582 153.126 165.829 150 171.244C147.203 176.089 144.56 180.935 142.075 185.763ZM199.796 123.334C194.66 128.814 189.518 134.837 184.45 141.351C189.555 141.119 194.744 141 200 141C205.112 141 210.159 141.112 215.129 141.332C210.065 134.825 204.928 128.808 199.796 123.334ZM129.917 148.712C141.821 145.88 154.835 143.746 168.625 142.449C176.007 132.251 183.654 122.979 191.347 114.802C186.902 110.566 182.495 106.764 178.177 103.43C168.071 95.6276 158.948 90.772 151.405 88.6313C143.91 86.5048 138.997 87.2947 135.796 89.1423C132.596 90.9899 129.455 94.8505 127.55 102.404C125.632 110.007 125.276 120.335 126.98 132.989C127.653 137.981 128.632 143.238 129.917 148.712ZM200 230C216.569 230 230 216.569 230 200C230 183.431 216.569 170 200 170C183.431 170 170 183.431 170 200C170 216.569 183.431 230 200 230Z" fill="#00CCFF"/>
</svg>
