<svg viewBox="0 0 400 400" fill="none" xmlns="http://www.w3.org/2000/svg">
<path fill-rule="evenodd" clip-rule="evenodd" d="M200 400C310.457 400 400 310.457 400 200C400 89.5431 310.457 0 200 0C89.5431 0 0 89.5431 0 200C0 310.457 89.5431 400 200 400ZM164.609 141.347H217.954V108.266H69.3945V141.347H121.763V286H164.609V141.347ZM319.15 224.11C323.626 227.61 325.864 232.493 325.864 238.759C325.864 244.293 323.789 248.606 319.639 251.698C315.57 254.709 309.995 256.215 302.915 256.215C291.847 256.215 283.831 253.977 278.867 249.501C273.984 244.944 271.543 237.904 271.543 228.383H228.574C228.574 240.102 231.504 250.478 237.363 259.511C243.304 268.463 252.093 275.543 263.73 280.751C275.449 285.878 288.511 288.441 302.915 288.441C323.341 288.441 339.414 284.006 351.133 275.136C362.852 266.265 368.711 254.058 368.711 238.515C368.711 219.065 359.108 203.806 339.902 192.738C332.008 188.181 321.917 183.949 309.629 180.043C297.34 176.055 288.755 172.23 283.872 168.568C278.989 164.825 276.548 160.674 276.548 156.117C276.548 150.909 278.745 146.636 283.14 143.3C287.616 139.882 293.678 138.173 301.328 138.173C308.896 138.173 314.878 140.167 319.272 144.154C323.748 148.142 325.986 153.757 325.986 161H368.711C368.711 150.176 365.903 140.574 360.288 132.191C354.673 123.728 346.779 117.217 336.606 112.66C326.515 108.103 315.081 105.824 302.305 105.824C289.202 105.824 277.402 107.94 266.904 112.172C256.406 116.322 248.268 122.182 242.49 129.75C236.794 137.237 233.945 145.904 233.945 155.751C233.945 175.526 245.461 191.07 268.491 202.382C275.571 205.881 284.686 209.503 295.835 213.246C306.984 216.99 314.756 220.611 319.15 224.11Z" fill="#2F74C0"/>
</svg>
